<svg width="53" height="53" viewBox="0 0 53 53" fill="none" xmlns="http://www.w3.org/2000/svg">
<circle cx="26.5" cy="26.5" r="26.5" fill="#F05136"/>
<path d="M33.2874 34.7823C33.0177 34.7823 32.7095 34.6667 32.4785 34.4741C32.0163 34.0503 31.9777 33.3185 32.44 32.8562L38.8345 26.0766L32.44 19.3354C32.0163 18.8732 32.0163 18.1413 32.4785 17.7175C32.9407 17.2938 33.6726 17.2938 34.0964 17.756L41.2227 25.3061C41.6464 25.7683 41.6464 26.4617 41.2227 26.8854L34.1348 34.4354C33.9037 34.6667 33.5956 34.7823 33.2874 34.7823Z" fill="white"/>
<path d="M19.0347 34.7823C18.7265 34.7823 18.4184 34.6667 18.1873 34.4356L11.061 26.8855C10.6372 26.4233 10.6372 25.7299 11.061 25.3062L18.1873 17.7562C18.611 17.2939 19.3429 17.2554 19.8052 17.7177C20.2674 18.1414 20.3059 18.8733 19.8436 19.3355L13.4877 26.0767L19.8822 32.8178C20.3059 33.2801 20.3059 34.012 19.8437 34.4357C19.6126 34.6666 19.3044 34.7823 19.0347 34.7823Z" fill="white"/>
<path d="M24.6675 38.6757C24.5998 38.6757 24.5659 38.6757 24.4981 38.6757C23.9558 38.5968 23.5491 37.9656 23.6508 37.3345L26.6333 14.6125C26.7011 13.9814 27.2434 13.508 27.7857 13.6263C28.328 13.7447 28.7347 14.3364 28.633 14.9676L25.6504 37.6895C25.5827 38.2418 25.176 38.6757 24.6675 38.6757Z" fill="white"/>
</svg>
